<svg xmlns="http://www.w3.org/2000/svg" xmlns:xlink="http://www.w3.org/1999/xlink" width="163.59" height="171.253"><defs><linearGradient xlink:href="#a" id="c" x1="55.549" x2="110.149" y1="77.07" y2="131.853" gradientUnits="userSpaceOnUse"/><linearGradient id="a"><stop offset="0" style="stop-color:#387eb8;stop-opacity:1"/><stop offset="1" style="stop-color:#366994;stop-opacity:1"/></linearGradient><linearGradient xlink:href="#b" id="d" x1="89.137" x2="147.777" y1="111.921" y2="168.101" gradientUnits="userSpaceOnUse"/><linearGradient id="b"><stop offset="0" style="stop-color:#ffe052;stop-opacity:1"/><stop offset="1" style="stop-color:#ffc331;stop-opacity:1"/></linearGradient></defs><path d="M99.75 67.469c-28.032 0-26.281 12.156-26.281 12.156l.031 12.594h26.75V96H62.875s-17.938-2.034-17.938 26.25 15.657 27.281 15.657 27.281h9.343v-13.125s-.503-15.656 15.407-15.656h26.531s14.906.241 14.906-14.406V82.125s2.263-14.656-27.031-14.656zM85 75.938a4.808 4.808 0 0 1 4.813 4.812A4.808 4.808 0 0 1 85 85.563a4.808 4.808 0 0 1-4.813-4.813A4.808 4.808 0 0 1 85 75.937z" style="color:#000;fill:url(#c)#000;fill-opacity:1;fill-rule:nonzero;stroke:none;stroke-width:1;marker:none;visibility:visible;display:inline;overflow:visible" transform="translate(-55.728 -48.638) scale(1.24012)"/><path d="M100.546 177.315c28.032 0 26.281-12.156 26.281-12.156l-.03-12.594h-26.75v-3.781h37.374s17.938 2.034 17.938-26.25c0-28.285-15.657-27.282-15.657-27.282h-9.343v13.125s.503 15.657-15.407 15.657h-26.53s-14.907-.241-14.907 14.406v24.219s-2.263 14.656 27.031 14.656zm14.75-8.469a4.808 4.808 0 0 1-4.812-4.812 4.808 4.808 0 0 1 4.812-4.813 4.808 4.808 0 0 1 4.813 4.813 4.808 4.808 0 0 1-4.813 4.812z" style="color:#000;fill:url(#d)#000;fill-opacity:1;fill-rule:nonzero;stroke:none;stroke-width:1;marker:none;visibility:visible;display:inline;overflow:visible" transform="translate(-55.728 -48.638) scale(1.24012)"/><path d="m-378.333 299.254-7.262-6.678.012-84.712c.011-83.626.038-84.785 2.114-90.332 4.437-11.86 11.107-15.893 27.898-16.872 10.07-.587 13.183-.17 76 10.19l65.5 10.801v69.963c0 53.902-.294 70.928-1.278 74.17-1.568 5.166-6.729 12.103-10.737 14.432-1.987 1.155-26.06 5.604-71.985 13.305-37.95 6.364-69.9 11.76-71 11.99-1.406.295-4.16-1.566-9.262-6.257zm91.387-23.178c2.256 0 2.375-.324 2.375-6.5 0-5.78-.216-6.5-1.953-6.5-3.704 0-6.853-2.24-8.604-6.125-.966-2.142-1.573-4.035-1.35-4.207.224-.171 2.533-1.53 5.132-3.017 12.903-7.388 18.687-23.962 18.724-53.65.044-35.71-8.947-52.639-30.266-56.984-6.703-1.367-14.307-.633-20.273 1.955-8.911 3.866-15.699 14.215-19.039 29.028-2.375 10.536-2.346 39.376.05 50.5 3.517 16.32 11.816 28.413 21.778 31.734 3.69 1.23 4.204 1.838 5.755 6.808 2.412 7.73 4.567 11.481 8.001 13.927 3.435 2.446 10.236 4.076 14.42 3.457 1.58-.234 3.943-.426 5.25-.426zm-22.61-37.304c-3.048-1.52-6.709-6.837-7.983-11.597-4.168-15.563-3.819-54.094.59-65.112 2-5 6.622-8.987 10.42-8.987 4.202 0 9.487 5.068 11.45 10.98 3.473 10.454 4.058 45.548 1.006 60.299-2.427 11.728-8.86 17.719-15.483 14.417zm66.985 7.256c9.462-2.101 10-2.566 10-8.64 0-4.718-.234-5.377-1.75-4.926-5.998 1.781-7.395 1.793-9.29.078-1.85-1.674-1.96-3.22-1.96-27.619v-25.845h12v-11.741l-6-.679-6-.679v-9.391c0-5.165-.338-9.597-.75-9.848-.413-.251-2.966-.615-5.674-.81l-4.924-.352-1.716 7a953.706 953.706 0 0 0-2.345 9.75c-.539 2.353-1.132 2.75-4.11 2.75h-3.481v13h6v29.04c0 35.483.398 36.846 11.5 39.288 3.192.703 3.755.678 8.5-.376z" style="fill:#7cc040" transform="matrix(.336 0 0 .336 235.517 -33.765)"/><path d="m-378.853 298.297-5.718-5.779v-85.355c0-61.883.319-86.42 1.16-89.228 1.48-4.942 6.975-11.377 11.829-13.853 2.076-1.06 6.865-2.179 10.642-2.489 5.08-.416 6.27-.3 4.571.446-4.946 2.17-9.275 6.485-11.928 11.887l-2.774 5.65-.28 92.25c-.154 50.738-.618 92.25-1.032 92.25-.413 0-3.324-2.6-6.47-5.779zm71.065-22.415c-4.73-1.258-9.968-6.994-12.238-13.402-.956-2.697-2.095-5.83-2.533-6.963-.476-1.232-2.416-2.544-4.831-3.268-8.941-2.679-17.285-14.701-20.91-30.13-2.602-11.078-2.53-44.634.119-54.543 4.05-15.153 11.745-24.978 21.937-28.004 6.568-1.95 10.58-1.837 4.997.142-9.405 3.332-16.325 12.403-20.515 26.893-2.094 7.242-2.298 9.887-2.231 28.97.063 18.126.361 22.047 2.182 28.654 4.1 14.883 10.266 23.435 20.102 27.88 4.515 2.04 5.296 2.838 6.253 6.393 2.277 8.459 6.804 14.602 12.683 17.21 2.155.957 2.297 1.196.702 1.178-1.1-.012-3.673-.467-5.717-1.01zm47.31-30.112c-7.881-2.762-9.093-8.394-9.093-42.257 0-22.836-.163-25.321-1.672-25.613-1.163-.225-2.04-2.146-2.884-6.324-.667-3.3-1.013-6.337-.77-6.75.244-.412 1.542-.75 2.885-.75 2.355 0 2.44.246 2.44 7v7H-263.682l.306 29.25c.34 32.467.594 33.821 7.104 37.791 2.497 1.522 2.761 1.94 1.202 1.9-1.1-.03-3.533-.59-5.407-1.247zm-45.834-9.444c5.641-5.889 7.74-16.981 7.74-40.9 0-22.9-2.73-35.946-8.346-39.88-2.04-1.428-2.012-1.47.99-1.47 10.235 0 14.052 14.153 13.077 48.5-.542 19.099-1.795 26.632-5.324 32.019-1.624 2.477-5.483 4.481-8.63 4.481-2.068 0-2.05-.093.493-2.75zm65.24-4.25c1.1-.472 3.35-.859 5-.859 2.558 0 2.706.127 1 .86-1.1.472-3.35.859-5 .859-2.557 0-2.705-.127-1-.86zm-26.202-69.25c4.37-19.122 3.83-17.75 7.002-17.75 2.536 0 2.855.3 2.355 2.215-.319 1.219-1.337 5.719-2.262 10-1.638 7.584-1.758 7.785-4.645 7.785-2.56 0-2.894-.307-2.45-2.25z" style="fill:#016123" transform="matrix(.336 0 0 .336 235.517 -33.765)"/></svg>